<svg version="1.1" id="Ebene_1" xmlns="http://www.w3.org/2000/svg" xmlns:xlink="http://www.w3.org/1999/xlink" x="0" y="0" width="225.2" height="14.6" viewBox="0 0 225.2 14.6" xml:space="preserve" enable-background="new 0 0 225.2 14.6"><style type="text/css">.st0{fill:#010202}.st1{fill:#c02733}.st2{fill:#fff}</style><g><polygon class="st0" points="7.8,1.5 6.6,1.5 1.3,13.2 2.6,13.2 4,10.2 9,10.2 8.5,9 4.5,9 7.2,3 7.4,3.4 11.8,13.2 13.1,13.2"/><polygon class="st0" points="21.1,1.6 19.8,1.6 19.8,13.2 27.6,13.2 27.6,12 21.1,12"/><polygon class="st0" points="35.7,8 42.1,8 42.1,6.8 35.7,6.8 35.7,2.8 42.8,2.8 42.8,1.6 34.4,1.6 34.4,13.2 42.9,13.2 42.9,12 35.7,12"/><polygon class="st0" points="59.6,1.6 57.9,1.6 51.2,8.5 51.2,1.6 49.9,1.6 49.9,13.2 51.2,13.2 51.2,10.1 53.7,7.6 58.1,13.2 59.8,13.2 54.6,6.7"/><path class="st0" d="M70.2,6.8C67.6,6.2,67,5.6,67,4.5v0c0-1,1-1.9,2.5-1.9c1.2,0,2.3,0.4,3.4,1.3l0.8-1c-1.2-0.9-2.4-1.4-4.1-1.4 c-2.2,0-3.8,1.3-3.8,3.2v0c0,1.9,1.2,2.8,3.9,3.4c2.4,0.5,3,1.1,3,2.2v0c0,1.1-1,2-2.6,2c-1.6,0-2.8-0.5-4-1.6l-0.8,1 c1.4,1.2,2.9,1.9,4.8,1.9c2.3,0,4-1.3,4-3.3v0C74,8.3,72.8,7.4,70.2,6.8"/><path class="st1" d="M89.2,8.4c0,2.5-1.4,3.8-3.5,3.8c-2.2,0-3.6-1.4-3.6-3.9V1.6h-1.3v6.8c0,3.3,2,5.1,4.8,5.1 c2.9,0,4.9-1.8,4.9-5.2V1.6h-1.3V8.4z"/><polygon class="st1" points="107.8,13.2 107.8,1.6 106.5,1.6 106.5,10.5 99.5,1.6 97.9,1.6 97.9,1.6 107,13.2"/><polygon class="st1" points="97.9,13.2 99.2,13.2 99.2,5.3 97.9,3.7"/><path class="st1" d="M124.3,7.5c0,2.6-1.9,4.6-4.8,4.6h-2.7V2.8h2.7C122.4,2.8,124.3,4.8,124.3,7.5L124.3,7.5z M119.5,1.6h-4v11.7 h4c3.7,0,6.2-2.5,6.2-5.8v0C125.7,4.1,123.1,1.6,119.5,1.6"/><path class="st0" d="M136.8,6.8c-2.6-0.5-3.2-1.2-3.2-2.3v0c0-1,1-1.9,2.5-1.9c1.2,0,2.3,0.4,3.4,1.3l0.8-1 c-1.2-0.9-2.4-1.4-4.1-1.4c-2.2,0-3.8,1.3-3.8,3.2v0c0,1.9,1.2,2.8,3.9,3.4c2.4,0.5,3,1.1,3,2.2v0c0,1.1-1,2-2.6,2 c-1.6,0-2.8-0.5-4-1.6l-0.8,1c1.4,1.2,2.9,1.9,4.8,1.9c2.3,0,4-1.3,4-3.3v0C140.6,8.3,139.4,7.4,136.8,6.8"/><polygon class="st0" points="155.6,6.8 148.9,6.8 148.9,1.6 147.6,1.6 147.6,13.2 148.9,13.2 148.9,8 155.6,8 155.6,13.2 156.9,13.2 156.9,1.6 155.6,1.6"/><polygon class="st0" points="170.1,1.5 168.9,1.5 163.6,13.2 164.9,13.2 166.3,10.2 171.3,10.2 170.8,9 166.8,9 169.5,3 170.1,4.4 174.1,13.2 175.4,13.2"/><polygon class="st0" points="191.9,13.2 191.9,1.6 190.6,1.6 190.6,10.5 183.6,1.5 182,1.6 182,1.6 191.1,13.2"/><polygon class="st0" points="182,13.2 183.3,13.2 183.3,5.3 182,3.7"/><polygon class="st0" points="198.7,2.8 202.6,2.8 202.6,13.2 203.9,13.2 203.9,2.8 207.8,2.8 207.8,1.6 198.7,1.6"/><path class="st0" d="M222.8,1.6v6.8c0,2.5-1.4,3.8-3.5,3.8c-2.2,0-3.6-1.4-3.6-3.9V1.6h-1.3v6.8c0,3.3,2,5.1,4.8,5.1 c2.9,0,4.9-1.8,4.9-5.2V1.6H222.8z"/></g></svg>